<?xml version="1.0" encoding="utf-8"?>
<!-- Generator: Adobe Illustrator 25.0.0, SVG Export Plug-In . SVG Version: 6.00 Build 0)  -->
<svg version="1.1" id="Capa_1" xmlns="http://www.w3.org/2000/svg" xmlns:xlink="http://www.w3.org/1999/xlink" x="0px" y="0px"
	 viewBox="0 0 571 574" style="enable-background:new 0 0 571 574;" xml:space="preserve">
<style type="text/css">
	.st0{fill:#FFFFFF;}
	.st1{fill:url(#SVGID_1_);}
	.st2{fill:url(#SVGID_2_);}
	.st3{fill:url(#SVGID_3_);}
	.st4{fill:url(#SVGID_4_);}
	.st5{fill:url(#SVGID_5_);}
	.st6{fill:#662D91;}
	.st7{fill:url(#SVGID_6_);}
	.st8{fill:url(#SVGID_7_);}
	.st9{fill:url(#SVGID_8_);}
	.st10{fill:url(#SVGID_9_);}
	.st11{fill:url(#SVGID_10_);}
	.st12{fill:url(#SVGID_11_);}
	.st13{fill:url(#SVGID_12_);}
	.st14{clip-path:url(#SVGID_14_);}
	.st15{fill:url(#SVGID_15_);}
	.st16{fill:url(#SVGID_16_);}
	.st17{fill:url(#SVGID_17_);}
	.st18{fill:url(#SVGID_18_);}
	.st19{fill:url(#SVGID_19_);}
	.st20{clip-path:url(#SVGID_21_);}
	.st21{fill:url(#SVGID_22_);}
	.st22{fill:url(#SVGID_23_);}
	.st23{fill:url(#SVGID_24_);}
	.st24{fill:url(#SVGID_25_);}
	.st25{fill:url(#SVGID_26_);}
	.st26{fill:url(#SVGID_27_);}
	.st27{fill:url(#SVGID_28_);}
	.st28{fill:url(#SVGID_29_);}
	.st29{fill:url(#SVGID_30_);}
	.st30{fill:url(#SVGID_31_);}
	.st31{fill:url(#SVGID_32_);}
	.st32{fill:url(#SVGID_33_);}
	.st33{fill:url(#SVGID_34_);}
	.st34{fill:none;stroke:url(#SVGID_35_);stroke-width:3;stroke-miterlimit:10;}
	.st35{fill:none;stroke:url(#SVGID_36_);stroke-width:3;stroke-miterlimit:10;}
	.st36{fill:none;stroke:url(#SVGID_37_);stroke-width:3;stroke-miterlimit:10;}
	.st37{fill:none;stroke:url(#SVGID_38_);stroke-width:3;stroke-miterlimit:10;}
	.st38{fill:none;stroke:url(#SVGID_39_);stroke-width:3;stroke-miterlimit:10;}
	.st39{fill:url(#SVGID_40_);}
	.st40{fill:url(#SVGID_41_);}
	.st41{fill:url(#SVGID_42_);}
	.st42{fill:url(#SVGID_43_);}
	.st43{fill:url(#SVGID_44_);}
	.st44{fill:none;}
	.st45{fill:url(#SVGID_45_);}
	.st46{fill:url(#SVGID_46_);}
	.st47{fill:url(#SVGID_47_);}
	.st48{fill:url(#SVGID_48_);}
	.st49{fill:url(#SVGID_49_);}
</style>
<path class="st0" d="M501.4,567.9H69.6c-35.9,0-64.9-29.1-64.9-64.9V71.1c0-35.9,29.1-64.9,64.9-64.9h431.9
	c35.9,0,64.9,29.1,64.9,64.9v431.9C566.4,538.8,537.3,567.9,501.4,567.9z"/>
<image style="overflow:visible;enable-background:new    ;" width="461" height="496" xlink:href="9BE2B530.png"  transform="matrix(1.2234 0 0 1.2234 -1273 -1661)">
</image>
<g>
	
		<linearGradient id="SVGID_1_" gradientUnits="userSpaceOnUse" x1="268.6385" y1="2138.9854" x2="613.6377" y2="2772.886" gradientTransform="matrix(1 0 0 -1 0 576)">
		<stop  offset="0" style="stop-color:#662D91"/>
		<stop  offset="1" style="stop-color:#EBAAFF"/>
	</linearGradient>
	<polygon class="st1" points="347.9,-2038.7 347.9,-1441.6 447,-1560.7 447,-1921.8 	"/>
	
		<linearGradient id="SVGID_2_" gradientUnits="userSpaceOnUse" x1="357.6008" y1="2090.5679" x2="702.5999" y2="2724.4685" gradientTransform="matrix(1 0 0 -1 0 576)">
		<stop  offset="0" style="stop-color:#662D91"/>
		<stop  offset="1" style="stop-color:#EBAAFF"/>
	</linearGradient>
	<polygon class="st2" points="463.5,-2039.2 463.5,-1442.1 562.6,-1561.2 562.6,-1922.3 	"/>
	
		<linearGradient id="SVGID_3_" gradientUnits="userSpaceOnUse" x1="444.1573" y1="2043.4597" x2="789.1563" y2="2677.3604" gradientTransform="matrix(1 0 0 -1 0 576)">
		<stop  offset="0" style="stop-color:#662D91"/>
		<stop  offset="1" style="stop-color:#EBAAFF"/>
	</linearGradient>
	<polygon class="st3" points="575.7,-2039.2 575.7,-1442.1 674.8,-1561.2 674.8,-1922.3 	"/>
	
		<linearGradient id="SVGID_4_" gradientUnits="userSpaceOnUse" x1="535.2527" y1="1993.8811" x2="880.2518" y2="2627.782" gradientTransform="matrix(1 0 0 -1 0 576)">
		<stop  offset="0" style="stop-color:#662D91"/>
		<stop  offset="1" style="stop-color:#EBAAFF"/>
	</linearGradient>
	<polygon class="st4" points="690.4,-2033 690.4,-1435.9 789.5,-1554.9 789.5,-1916.1 	"/>
	
		<linearGradient id="SVGID_5_" gradientUnits="userSpaceOnUse" x1="624.9619" y1="1945.0571" x2="969.961" y2="2578.958" gradientTransform="matrix(1 0 0 -1 0 576)">
		<stop  offset="0" style="stop-color:#662D91"/>
		<stop  offset="1" style="stop-color:#EBAAFF"/>
	</linearGradient>
	<polygon class="st5" points="810.1,-2039.2 810.1,-1442.1 909.2,-1561.2 909.2,-1922.3 	"/>
</g>
<g>
	<path class="st6" d="M2619.9-1193.9c-6.3,0-11.1,2-14.4,5.9c-3.3,3.9-5,9.3-5,16.3c0,3.3,0.4,6.3,1.2,9.1c0.8,2.7,2,5.1,3.5,7
		c1.6,1.9,3.5,3.5,5.8,4.6c2.3,1.1,5.1,1.6,8.2,1.6c1.9,0,3.6-0.1,5-0.2s2.5-0.3,3.4-0.6v-22h11.1v29.4c-1.5,0.6-4.1,1.2-7.8,1.9
		c-3.6,0.7-7.9,1.1-12.6,1.1c-4.4,0-8.4-0.7-12.1-2.1c-3.6-1.4-6.8-3.5-9.3-6.2c-2.6-2.7-4.6-6-6-10c-1.4-3.9-2.1-8.5-2.1-13.6
		s0.8-9.7,2.3-13.6s3.7-7.3,6.4-10c2.7-2.7,5.9-4.8,9.5-6.2c3.6-1.4,7.5-2.1,11.7-2.1c2.8,0,5.3,0.2,7.6,0.6s4.1,0.8,5.7,1.3
		c1.6,0.5,2.9,1,3.9,1.5s1.8,0.9,2.2,1.2l-3.4,9.1c-1.8-1.1-4-2-6.6-2.7C2625.6-1193.6,2622.8-1193.9,2619.9-1193.9z"/>
	<path class="st6" d="M2651.6-1141.1v-61.2h39.3v9.4h-28.2v15.1h25.1v9.3h-25.1v17.9h30.3v9.4H2651.6z"/>
	<path class="st6" d="M2720.3-1202.9c8.8,0,15.6,1.6,20.3,4.9s7,8.2,7,14.8c0,8.3-4.1,13.9-12.3,16.9c1.1,1.4,2.4,3,3.8,4.9
		c1.4,1.9,2.9,4.1,4.3,6.3c1.5,2.3,2.9,4.6,4.2,7c1.4,2.4,2.6,4.7,3.6,7h-12.4c-1.1-2.1-2.3-4.3-3.6-6.4c-1.3-2.2-2.6-4.2-3.9-6.3
		c-1.3-2-2.6-3.9-3.9-5.7c-1.3-1.8-2.5-3.4-3.6-4.8c-0.8,0.1-1.5,0.1-2.1,0.1s-1.1,0-1.7,0h-5.4v23.1h-11.1v-60.3
		c2.7-0.6,5.6-1,8.7-1.2C2715.1-1202.8,2717.9-1202.9,2720.3-1202.9z M2721.1-1193.3c-2.4,0-4.5,0.1-6.5,0.3v19.8h4.9
		c2.7,0,5.1-0.2,7.1-0.4c2.1-0.3,3.8-0.8,5.2-1.6c1.4-0.8,2.4-1.8,3.1-3.1c0.7-1.3,1.1-2.9,1.1-4.9c0-1.9-0.4-3.5-1.1-4.8
		c-0.7-1.3-1.7-2.3-3.1-3.1c-1.3-0.8-2.9-1.3-4.7-1.6C2725.3-1193.2,2723.3-1193.3,2721.1-1193.3z"/>
	<path class="st6" d="M2759.9-1141.1v-61.2h39.3v9.4h-28.2v15.1h25.1v9.3h-25.1v17.9h30.3v9.4H2759.9z"/>
	<path class="st6" d="M2852.9-1141.1c-2-3.4-4.2-7-6.7-10.8s-5-7.7-7.7-11.7s-5.3-7.7-8.1-11.4s-5.3-7-7.8-9.9v43.8h-10.9v-61.2h9.1
		c2.4,2.5,4.9,5.4,7.6,8.8c2.7,3.4,5.4,6.9,8.2,10.6s5.4,7.3,7.9,11c2.6,3.7,4.8,7.1,6.9,10.3v-40.6h11v61.2L2852.9-1141.1
		L2852.9-1141.1z"/>
	<path class="st6" d="M2904.2-1139.8c-4.6,0-8.7-0.7-12.4-2.1c-3.6-1.4-6.7-3.5-9.3-6.2s-4.5-6.1-5.8-10c-1.4-3.9-2-8.5-2-13.6
		s0.8-9.7,2.3-13.6s3.7-7.3,6.4-10c2.7-2.7,5.9-4.8,9.5-6.2c3.6-1.4,7.6-2.1,11.8-2.1c2.5,0,4.8,0.2,6.9,0.6
		c2.1,0.4,3.9,0.8,5.4,1.3c1.5,0.5,2.8,1,3.8,1.5s1.7,0.9,2.1,1.2l-3.3,9.1c-1.4-0.9-3.4-1.7-6.1-2.5c-2.6-0.8-5.5-1.2-8.5-1.2
		c-2.6,0-5.1,0.5-7.4,1.4c-2.3,0.9-4.3,2.3-6,4.1s-3,4.1-3.9,6.9s-1.4,6-1.4,9.6c0,3.2,0.4,6.2,1.1,8.9c0.7,2.7,1.9,5.1,3.4,7
		c1.5,2,3.5,3.5,5.8,4.6c2.4,1.1,5.2,1.6,8.5,1.6c3.9,0,7.1-0.4,9.6-1.2c2.5-0.8,4.4-1.6,5.7-2.3l3,9.1c-0.7,0.5-1.7,0.9-2.9,1.4
		c-1.2,0.5-2.6,0.9-4.3,1.4c-1.6,0.4-3.5,0.8-5.6,1.1C2908.8-1139.9,2906.6-1139.8,2904.2-1139.8z"/>
	<path class="st6" d="M2933.4-1202.3h11.1v61.2h-11.1V-1202.3z"/>
	<path class="st6" d="M2999.9-1141.1c-0.8-2.4-1.7-4.8-2.6-7.2c-0.9-2.3-1.7-4.8-2.6-7.2h-25.9c-0.8,2.5-1.7,4.9-2.5,7.3
		c-0.9,2.4-1.7,4.8-2.5,7.1h-11.6c2.3-6.5,4.5-12.6,6.5-18.1c2.1-5.5,4.1-10.8,6-15.7s3.9-9.7,5.9-14.1c1.9-4.5,3.9-8.9,6-13.3h10.6
		c2.1,4.4,4.1,8.8,6,13.3c1.9,4.5,3.9,9.2,5.9,14.1c2,4.9,4,10.2,6.1,15.7c2.1,5.5,4.3,11.6,6.6,18.1L2999.9-1141.1L2999.9-1141.1z
		 M2981.8-1190.5c-1.4,3.1-2.9,6.9-4.6,11.4s-3.6,9.3-5.4,14.6h20.1c-1.9-5.2-3.7-10.1-5.5-14.7
		C2984.6-1183.7,2983.1-1187.5,2981.8-1190.5z"/>
	<path class="st6" d="M3060.8-1141.1c-2-3.4-4.2-7-6.7-10.8s-5-7.7-7.7-11.7s-5.3-7.7-8.1-11.4s-5.3-7-7.8-9.9v43.8h-10.9v-61.2h9.1
		c2.4,2.5,4.9,5.4,7.6,8.8c2.7,3.4,5.4,6.9,8.2,10.6s5.4,7.3,7.9,11c2.6,3.7,4.8,7.1,6.9,10.3v-40.6h11v61.2L3060.8-1141.1
		L3060.8-1141.1z"/>
	<path class="st6" d="M3136.9-1171.8c0,5.3-0.8,9.9-2.5,13.8c-1.6,3.9-4,7.2-7,9.8s-6.7,4.6-10.9,5.8c-4.3,1.3-9,1.9-14.2,1.9
		c-2.5,0-5.3-0.1-8.4-0.3c-3.1-0.2-6.1-0.6-8.9-1.3v-59.4c2.8-0.7,5.8-1.1,9-1.2c3.2-0.2,6-0.3,8.5-0.3c5.1,0,9.8,0.6,14,1.8
		c4.2,1.2,7.9,3.1,10.9,5.7c3,2.6,5.4,5.8,7,9.7C3136-1181.9,3136.9-1177.2,3136.9-1171.8z M3096.1-1150.3c0.6,0.1,1.5,0.1,2.6,0.1
		s2.5,0,4.3,0c7.5,0,13.1-1.9,16.7-5.7c3.7-3.8,5.5-9.1,5.5-15.9c0-6.9-1.8-12.3-5.4-16c-3.6-3.7-9.2-5.6-16.7-5.6
		c-3.3,0-5.6,0.1-7.1,0.3L3096.1-1150.3L3096.1-1150.3z"/>
	<path class="st6" d="M3205.9-1171.8c0,5.2-0.8,9.9-2.3,13.9c-1.6,4-3.7,7.3-6.4,10c-2.7,2.7-5.8,4.7-9.4,6.1c-3.6,1.3-7.4,2-11.5,2
		s-7.9-0.7-11.5-2s-6.8-3.4-9.4-6.1s-4.8-6-6.4-10c-1.6-4-2.4-8.6-2.4-13.9c0-5.2,0.8-9.8,2.4-13.8c1.6-4,3.8-7.3,6.5-10
		s5.9-4.7,9.5-6.1s7.4-2,11.4-2s7.8,0.7,11.4,2c3.6,1.4,6.7,3.4,9.4,6.1c2.7,2.7,4.8,6.1,6.4,10
		C3205.1-1181.6,3205.9-1177,3205.9-1171.8z M3158.1-1171.8c0,3.4,0.4,6.4,1.2,9.1c0.8,2.7,2,5.1,3.6,7c1.6,1.9,3.5,3.4,5.7,4.5
		c2.2,1.1,4.8,1.6,7.6,1.6c2.8,0,5.3-0.5,7.5-1.6c2.2-1.1,4.1-2.6,5.7-4.5c1.6-1.9,2.8-4.2,3.6-7c0.8-2.7,1.2-5.8,1.2-9.1
		s-0.4-6.4-1.2-9.1s-2-5.1-3.6-7c-1.6-1.9-3.5-3.4-5.7-4.5c-2.2-1.1-4.7-1.6-7.5-1.6c-2.8,0-5.4,0.5-7.6,1.6
		c-2.2,1.1-4.1,2.6-5.7,4.5s-2.8,4.3-3.6,7C3158.6-1178.2,3158.1-1175.1,3158.1-1171.8z"/>
	
		<linearGradient id="SVGID_6_" gradientUnits="userSpaceOnUse" x1="2534.4712" y1="1632.7413" x2="3847.1445" y2="1839.1005" gradientTransform="matrix(1 0 0 -1 0 576)">
		<stop  offset="0" style="stop-color:#662D91"/>
		<stop  offset="1" style="stop-color:#EBAAFF"/>
	</linearGradient>
	<path class="st7" d="M3265.1-1139.8c-4.3,0-8.2-0.7-11.8-2.1c-3.5-1.4-6.6-3.5-9.1-6.2c-2.5-2.7-4.5-6.1-5.9-10
		c-1.4-4-2.1-8.5-2.1-13.7s0.8-9.7,2.3-13.6s3.7-7.3,6.3-10c2.6-2.7,5.7-4.8,9.3-6.2s7.3-2.1,11.3-2.1c2.5,0,4.8,0.2,6.8,0.5
		s3.8,0.8,5.3,1.2s2.7,0.9,3.7,1.4c0.9,0.5,1.6,0.8,1.9,1.1l-2.5,7.1c-0.5-0.3-1.3-0.7-2.3-1.2s-2.1-0.8-3.4-1.2
		c-1.3-0.4-2.6-0.8-4.1-1c-1.5-0.3-3-0.4-4.6-0.4c-3.2,0-6.1,0.6-8.7,1.7s-4.8,2.7-6.6,4.9c-1.8,2.1-3.2,4.7-4.2,7.7
		c-1,3-1.5,6.4-1.5,10.2c0,3.7,0.4,7,1.3,10s2.1,5.6,3.8,7.7c1.7,2.2,3.8,3.8,6.4,5c2.6,1.2,5.6,1.8,9,1.8c3.9,0,7.2-0.4,9.8-1.2
		c2.6-0.8,4.5-1.6,5.8-2.2l2.2,7.1c-0.4,0.3-1.1,0.7-2.2,1.1s-2.4,0.9-4,1.3s-3.4,0.8-5.6,1.1
		C3269.9-1139.9,3267.6-1139.8,3265.1-1139.8z"/>
	
		<linearGradient id="SVGID_7_" gradientUnits="userSpaceOnUse" x1="2536.0022" y1="1623.0017" x2="3848.6758" y2="1829.361" gradientTransform="matrix(1 0 0 -1 0 576)">
		<stop  offset="0" style="stop-color:#662D91"/>
		<stop  offset="1" style="stop-color:#EBAAFF"/>
	</linearGradient>
	<path class="st8" d="M3336.4-1141.1c-1-2.7-1.9-5.3-2.8-7.8c-0.9-2.6-1.8-5.2-2.7-7.8h-27.7l-5.6,15.6h-8.9
		c2.4-6.5,4.6-12.5,6.6-18c2.1-5.5,4.1-10.7,6.1-15.7c2-4.9,3.9-9.7,5.9-14.2c1.9-4.5,4-9,6.1-13.4h7.9c2.1,4.4,4.1,8.9,6.1,13.4
		c1.9,4.5,3.9,9.2,5.9,14.2c2,4.9,4,10.2,6.1,15.7s4.3,11.5,6.6,18L3336.4-1141.1L3336.4-1141.1z M3328.3-1163.8
		c-1.9-5.1-3.8-10.1-5.6-14.9s-3.8-9.4-5.8-13.8c-2.1,4.4-4,9-5.9,13.8c-1.9,4.8-3.7,9.8-5.5,14.9H3328.3z"/>
	
		<linearGradient id="SVGID_8_" gradientUnits="userSpaceOnUse" x1="2537.188" y1="1615.4589" x2="3849.8618" y2="1821.818" gradientTransform="matrix(1 0 0 -1 0 576)">
		<stop  offset="0" style="stop-color:#662D91"/>
		<stop  offset="1" style="stop-color:#EBAAFF"/>
	</linearGradient>
	<path class="st9" d="M3396-1141.1c-1.3-2.2-2.8-4.6-4.5-7.3s-3.5-5.5-5.4-8.4s-4-5.9-6.1-8.9c-2.1-3-4.2-5.9-6.2-8.7
		c-2.1-2.8-4.1-5.4-6-7.9s-3.7-4.7-5.4-6.5v47.8h-8.4v-61.2h6.8c2.8,2.9,5.7,6.4,8.9,10.3s6.3,7.9,9.4,12.1s6,8.2,8.7,12.2
		c2.7,4,5.1,7.6,6.9,10.7v-45.3h8.4v61.2L3396-1141.1L3396-1141.1z"/>
	
		<linearGradient id="SVGID_9_" gradientUnits="userSpaceOnUse" x1="2538.9651" y1="1604.1549" x2="3851.6389" y2="1810.514" gradientTransform="matrix(1 0 0 -1 0 576)">
		<stop  offset="0" style="stop-color:#662D91"/>
		<stop  offset="1" style="stop-color:#EBAAFF"/>
	</linearGradient>
	<path class="st10" d="M3459.2-1141.1c-1-2.7-1.9-5.3-2.8-7.8s-1.8-5.2-2.7-7.8h-27.7l-5.6,15.6h-8.9c2.4-6.5,4.6-12.5,6.6-18
		c2.1-5.5,4.1-10.7,6.1-15.7c2-4.9,3.9-9.7,5.9-14.2c1.9-4.5,4-9,6.1-13.4h7.9c2.1,4.4,4.1,8.9,6.1,13.4c1.9,4.5,3.9,9.2,5.9,14.2
		c2,4.9,4,10.2,6.1,15.7s4.3,11.5,6.6,18L3459.2-1141.1L3459.2-1141.1z M3451.2-1163.8c-1.9-5.1-3.8-10.1-5.6-14.9
		s-3.8-9.4-5.8-13.8c-2.1,4.4-4,9-5.9,13.8c-1.9,4.8-3.7,9.8-5.5,14.9H3451.2z"/>
	
		<linearGradient id="SVGID_10_" gradientUnits="userSpaceOnUse" x1="2540.0032" y1="1597.5515" x2="3852.6768" y2="1803.9106" gradientTransform="matrix(1 0 0 -1 0 576)">
		<stop  offset="0" style="stop-color:#662D91"/>
		<stop  offset="1" style="stop-color:#EBAAFF"/>
	</linearGradient>
	<path class="st11" d="M3513.7-1148.6v7.4h-36.8v-61.2h8.6v53.8L3513.7-1148.6L3513.7-1148.6z"/>
	
		<linearGradient id="SVGID_11_" gradientUnits="userSpaceOnUse" x1="2541.1418" y1="1590.309" x2="3853.8154" y2="1796.6681" gradientTransform="matrix(1 0 0 -1 0 576)">
		<stop  offset="0" style="stop-color:#662D91"/>
		<stop  offset="1" style="stop-color:#EBAAFF"/>
	</linearGradient>
	<path class="st12" d="M3522.7-1141.1v-61.2h37.4v7.3h-28.8v18.2h25.6v7.2h-25.6v21.2h31v7.3L3522.7-1141.1L3522.7-1141.1z"/>
	
		<linearGradient id="SVGID_12_" gradientUnits="userSpaceOnUse" x1="2542.2634" y1="1583.1741" x2="3854.937" y2="1789.5332" gradientTransform="matrix(1 0 0 -1 0 576)">
		<stop  offset="0" style="stop-color:#662D91"/>
		<stop  offset="1" style="stop-color:#EBAAFF"/>
	</linearGradient>
	<path class="st13" d="M3587.4-1147.2c8.9,0,13.4-3.1,13.4-9.2c0-1.9-0.4-3.5-1.2-4.8c-0.8-1.3-1.9-2.5-3.2-3.4
		c-1.4-1-2.9-1.8-4.6-2.5s-3.6-1.4-5.5-2.1c-2.2-0.8-4.4-1.6-6.4-2.6c-2-1-3.7-2.1-5.2-3.4c-1.5-1.3-2.6-2.9-3.5-4.7
		c-0.9-1.8-1.3-4-1.3-6.6c0-5.4,1.8-9.5,5.5-12.5c3.6-3,8.7-4.5,15.1-4.5c3.7,0,7.1,0.4,10.1,1.2c3,0.8,5.3,1.7,6.7,2.6l-2.7,7
		c-1.2-0.8-3.1-1.5-5.5-2.3s-5.3-1.1-8.5-1.1c-1.6,0-3.2,0.2-4.6,0.5c-1.4,0.3-2.6,0.9-3.7,1.6s-1.9,1.6-2.5,2.7s-0.9,2.4-0.9,3.8
		c0,1.7,0.3,3,1,4.2s1.6,2.1,2.7,3s2.6,1.6,4.1,2.3s3.3,1.4,5.2,2.1c2.6,1.1,5.1,2.1,7.3,3.2s4.1,2.3,5.7,3.8
		c1.6,1.5,2.9,3.2,3.8,5.3s1.3,4.5,1.3,7.4c0,5.4-2,9.5-5.9,12.4c-3.9,2.9-9.4,4.3-16.6,4.3c-2.4,0-4.6-0.2-6.7-0.5
		c-2-0.3-3.8-0.7-5.4-1.2c-1.6-0.4-3-0.9-4.1-1.4c-1.1-0.5-2.1-0.9-2.7-1.3l2.6-7.1c1.4,0.8,3.4,1.6,6.2,2.6
		C3580-1147.7,3583.4-1147.2,3587.4-1147.2z"/>
</g>
<g>
	<g>
		<defs>
			
				<ellipse id="SVGID_13_" transform="matrix(0.9065 -0.4223 0.4223 0.9065 843.7059 87.935)" cx="620.4" cy="-1860.6" rx="385.8" ry="265.5"/>
		</defs>
		<clipPath id="SVGID_14_">
			<use xlink:href="#SVGID_13_"  style="overflow:visible;"/>
		</clipPath>
		<g class="st14">
			
				<linearGradient id="SVGID_15_" gradientUnits="userSpaceOnUse" x1="324.2845" y1="2310.8176" x2="534.6497" y2="2358.5005" gradientTransform="matrix(1 0 0 -1 -6.540611e-06 576)">
				<stop  offset="0" style="stop-color:#F09300"/>
				<stop  offset="1" style="stop-color:#FFD300"/>
			</linearGradient>
			<polygon class="st15" points="347.9,-2038.7 347.9,-1441.6 447,-1560.7 447,-1921.8 			"/>
			
				<linearGradient id="SVGID_16_" gradientUnits="userSpaceOnUse" x1="382.2087" y1="2292.5903" x2="604.0717" y2="2358.2959" gradientTransform="matrix(1 0 0 -1 -6.540611e-06 576)">
				<stop  offset="0" style="stop-color:#F09300"/>
				<stop  offset="1" style="stop-color:#FFD300"/>
			</linearGradient>
			<polygon class="st16" points="463.5,-2039.2 463.5,-1442.1 562.6,-1561.2 562.6,-1922.3 			"/>
			
				<linearGradient id="SVGID_17_" gradientUnits="userSpaceOnUse" x1="494.3987" y1="2292.5903" x2="716.2709" y2="2358.2986" gradientTransform="matrix(1 0 0 -1 -6.540611e-06 576)">
				<stop  offset="0" style="stop-color:#F09300"/>
				<stop  offset="1" style="stop-color:#FFD300"/>
			</linearGradient>
			<polygon class="st17" points="575.7,-2039.2 575.7,-1442.1 674.8,-1561.2 674.8,-1922.3 			"/>
			
				<linearGradient id="SVGID_18_" gradientUnits="userSpaceOnUse" x1="609.0901" y1="2286.3557" x2="830.953" y2="2352.0613" gradientTransform="matrix(1 0 0 -1 -6.540611e-06 576)">
				<stop  offset="0" style="stop-color:#F09300"/>
				<stop  offset="1" style="stop-color:#FFD300"/>
			</linearGradient>
			<polygon class="st18" points="690.4,-2033 690.4,-1435.9 789.5,-1554.9 789.5,-1916.1 			"/>
			
				<linearGradient id="SVGID_19_" gradientUnits="userSpaceOnUse" x1="728.7587" y1="2292.5903" x2="950.6309" y2="2358.2986" gradientTransform="matrix(1 0 0 -1 -6.540611e-06 576)">
				<stop  offset="0" style="stop-color:#F09300"/>
				<stop  offset="1" style="stop-color:#FFD300"/>
			</linearGradient>
			<polygon class="st19" points="810,-2039.2 810,-1442.1 909.2,-1561.2 909.2,-1922.3 			"/>
		</g>
	</g>
</g>
<g>
	<g>
		<defs>
			
				<ellipse id="SVGID_20_" transform="matrix(0.9065 -0.4223 0.4223 0.9065 867.3187 67.8901)" cx="586.9" cy="-1923.9" rx="385.8" ry="265.5"/>
		</defs>
		<clipPath id="SVGID_21_">
			<use xlink:href="#SVGID_20_"  style="overflow:visible;"/>
		</clipPath>
		<g class="st20">
			
				<linearGradient id="SVGID_22_" gradientUnits="userSpaceOnUse" x1="256.1467" y1="2249.9446" x2="844.6621" y2="2674.6614" gradientTransform="matrix(1 0 0 -1 -7.142795e-06 576)">
				<stop  offset="0" style="stop-color:#662D91"/>
				<stop  offset="1" style="stop-color:#EBAAFF"/>
			</linearGradient>
			<polygon class="st21" points="347.9,-2038.7 347.9,-1441.6 447,-1560.7 447,-1921.8 			"/>
			
				<linearGradient id="SVGID_23_" gradientUnits="userSpaceOnUse" x1="295.4955" y1="2195.4204" x2="884.0108" y2="2620.137" gradientTransform="matrix(1 0 0 -1 -7.142795e-06 576)">
				<stop  offset="0" style="stop-color:#662D91"/>
				<stop  offset="1" style="stop-color:#EBAAFF"/>
			</linearGradient>
			<polygon class="st22" points="463.5,-2039.2 463.5,-1442.1 562.6,-1561.2 562.6,-1922.3 			"/>
			
				<linearGradient id="SVGID_24_" gradientUnits="userSpaceOnUse" x1="333.9158" y1="2142.1826" x2="922.4312" y2="2566.8994" gradientTransform="matrix(1 0 0 -1 -7.142795e-06 576)">
				<stop  offset="0" style="stop-color:#662D91"/>
				<stop  offset="1" style="stop-color:#EBAAFF"/>
			</linearGradient>
			<polygon class="st23" points="575.7,-2039.2 575.7,-1442.1 674.8,-1561.2 674.8,-1922.3 			"/>
			
				<linearGradient id="SVGID_25_" gradientUnits="userSpaceOnUse" x1="376.1509" y1="2083.6587" x2="964.6664" y2="2508.3755" gradientTransform="matrix(1 0 0 -1 -7.142795e-06 576)">
				<stop  offset="0" style="stop-color:#662D91"/>
				<stop  offset="1" style="stop-color:#EBAAFF"/>
			</linearGradient>
			<polygon class="st24" points="690.4,-2033 690.4,-1435.9 789.5,-1554.9 789.5,-1916.1 			"/>
			
				<linearGradient id="SVGID_26_" gradientUnits="userSpaceOnUse" x1="414.1741" y1="2030.9713" x2="1002.6896" y2="2455.6882" gradientTransform="matrix(1 0 0 -1 -7.142795e-06 576)">
				<stop  offset="0" style="stop-color:#662D91"/>
				<stop  offset="1" style="stop-color:#EBAAFF"/>
			</linearGradient>
			<polygon class="st25" points="810,-2039.2 810,-1442.1 909.2,-1561.2 909.2,-1922.3 			"/>
		</g>
	</g>
</g>
<linearGradient id="SVGID_27_" gradientUnits="userSpaceOnUse" x1="314.6756" y1="2235.9199" x2="357.8934" y2="2235.9199" gradientTransform="matrix(1 0 0 -1 0 576)">
	<stop  offset="0" style="stop-color:#F09300"/>
	<stop  offset="0.8566" style="stop-color:#F09300"/>
	<stop  offset="1" style="stop-color:#F09300"/>
</linearGradient>
<path class="st26" d="M347.9-1689.8c0,0-22.4,8.3,0,31s0,46.1,0,46.1s-74.8-49.6,0-94.5V-1689.8z"/>
<linearGradient id="SVGID_28_" gradientUnits="userSpaceOnUse" x1="878.0701" y1="2447.875" x2="1048.51" y2="2447.875" gradientTransform="matrix(1 0 0 -1 0 576)">
	<stop  offset="0" style="stop-color:#FFD300"/>
	<stop  offset="0.1413" style="stop-color:#FFD300"/>
	<stop  offset="1" style="stop-color:#FFD300"/>
</linearGradient>
<polygon class="st27" points="908.4,-1860.5 932.6,-1906.4 878.1,-1923.8 1048.5,-1991.4 1041,-1816.8 995.5,-1860.5 909.2,-1752.4 
	"/>
<linearGradient id="SVGID_29_" gradientUnits="userSpaceOnUse" x1="1722.9388" y1="3129.4683" x2="1736.4387" y2="2555.7183" gradientTransform="matrix(1 0 0 -1 0 576)">
	<stop  offset="7.537689e-03" style="stop-color:#461E76"/>
	<stop  offset="3.570000e-02" style="stop-color:#522380"/>
	<stop  offset="8.299999e-02" style="stop-color:#5D298A"/>
	<stop  offset="0.1495" style="stop-color:#642C8F"/>
	<stop  offset="0.3342" style="stop-color:#662D91"/>
	<stop  offset="1" style="stop-color:#EBAAFF"/>
</linearGradient>
<polygon class="st28" points="1691.3,-2497.3 1691.3,-2018.3 1770.8,-2113.8 1770.8,-2403.5 "/>
<g>
	
		<linearGradient id="SVGID_30_" gradientUnits="userSpaceOnUse" x1="2932.9006" y1="1926.0366" x2="2925.4441" y2="2308.188" gradientTransform="matrix(1 0 0 -1 0 576)">
		<stop  offset="0" style="stop-color:#662D91"/>
		<stop  offset="1" style="stop-color:#EBAAFF"/>
	</linearGradient>
	<polygon class="st29" points="2898.5,-1662.7 2898.5,-1265.8 2964.4,-1344.9 2964.4,-1585 	"/>
	
		<linearGradient id="SVGID_31_" gradientUnits="userSpaceOnUse" x1="3009.6926" y1="1927.535" x2="3002.2361" y2="2309.6863" gradientTransform="matrix(1 0 0 -1 0 576)">
		<stop  offset="0" style="stop-color:#662D91"/>
		<stop  offset="1" style="stop-color:#EBAAFF"/>
	</linearGradient>
	<polygon class="st30" points="2975.3,-1663 2975.3,-1266.1 3041.2,-1345.3 3041.2,-1585.3 	"/>
	
		<linearGradient id="SVGID_32_" gradientUnits="userSpaceOnUse" x1="3084.2292" y1="1928.9894" x2="3076.7727" y2="2311.1406" gradientTransform="matrix(1 0 0 -1 0 576)">
		<stop  offset="0" style="stop-color:#662D91"/>
		<stop  offset="1" style="stop-color:#EBAAFF"/>
	</linearGradient>
	<polygon class="st31" points="3049.9,-1663 3049.9,-1266.1 3115.7,-1345.3 3115.7,-1585.3 	"/>
	
		<linearGradient id="SVGID_33_" gradientUnits="userSpaceOnUse" x1="3160.3445" y1="1930.4746" x2="3152.8879" y2="2312.626" gradientTransform="matrix(1 0 0 -1 0 576)">
		<stop  offset="0" style="stop-color:#662D91"/>
		<stop  offset="1" style="stop-color:#EBAAFF"/>
	</linearGradient>
	<polygon class="st32" points="3126.1,-1658.9 3126.1,-1262 3192,-1341.1 3192,-1581.2 	"/>
	
		<linearGradient id="SVGID_34_" gradientUnits="userSpaceOnUse" x1="3239.9299" y1="1932.0275" x2="3232.4731" y2="2314.1787" gradientTransform="matrix(1 0 0 -1 0 576)">
		<stop  offset="0" style="stop-color:#662D91"/>
		<stop  offset="1" style="stop-color:#EBAAFF"/>
	</linearGradient>
	<polygon class="st33" points="3205.6,-1663 3205.6,-1266.1 3271.5,-1345.3 3271.5,-1585.3 	"/>
</g>
<g>
	
		<linearGradient id="SVGID_35_" gradientUnits="userSpaceOnUse" x1="3249.8293" y1="2569.6108" x2="3242.4299" y2="2948.8325" gradientTransform="matrix(1 0 0 -1 0 576)">
		<stop  offset="0" style="stop-color:#662D91"/>
		<stop  offset="1" style="stop-color:#EBAAFF"/>
	</linearGradient>
	<polygon class="st34" points="3216.1,-2368.2 3216.1,-1997.1 3277.7,-2071.1 3277.7,-2295.5 	"/>
	
		<linearGradient id="SVGID_36_" gradientUnits="userSpaceOnUse" x1="3321.6643" y1="2569.9111" x2="3314.2651" y2="2949.1318" gradientTransform="matrix(1 0 0 -1 0 576)">
		<stop  offset="0" style="stop-color:#662D91"/>
		<stop  offset="1" style="stop-color:#EBAAFF"/>
	</linearGradient>
	<polygon class="st35" points="3287.9,-2368.5 3287.9,-1997.4 3349.5,-2071.4 3349.5,-2295.9 	"/>
	
		<linearGradient id="SVGID_37_" gradientUnits="userSpaceOnUse" x1="3391.3945" y1="2569.9111" x2="3383.9949" y2="2949.1318" gradientTransform="matrix(1 0 0 -1 0 576)">
		<stop  offset="0" style="stop-color:#662D91"/>
		<stop  offset="1" style="stop-color:#EBAAFF"/>
	</linearGradient>
	<polygon class="st36" points="3357.6,-2368.5 3357.6,-1997.4 3419.3,-2071.4 3419.3,-2295.9 	"/>
	
		<linearGradient id="SVGID_38_" gradientUnits="userSpaceOnUse" x1="3462.6794" y1="2566.041" x2="3455.28" y2="2945.262" gradientTransform="matrix(1 0 0 -1 0 576)">
		<stop  offset="0" style="stop-color:#662D91"/>
		<stop  offset="1" style="stop-color:#EBAAFF"/>
	</linearGradient>
	<polygon class="st37" points="3428.9,-2364.6 3428.9,-1993.5 3490.5,-2067.5 3490.5,-2292 	"/>
	
		<linearGradient id="SVGID_39_" gradientUnits="userSpaceOnUse" x1="3537.0593" y1="2569.9106" x2="3529.6602" y2="2949.1321" gradientTransform="matrix(1 0 0 -1 0 576)">
		<stop  offset="0" style="stop-color:#662D91"/>
		<stop  offset="1" style="stop-color:#EBAAFF"/>
	</linearGradient>
	<polygon class="st38" points="3503.3,-2368.5 3503.3,-1997.4 3564.9,-2071.4 3564.9,-2295.9 	"/>
</g>
<g>
	
		<linearGradient id="SVGID_40_" gradientUnits="userSpaceOnUse" x1="2464.2603" y1="2620.8284" x2="2457.2871" y2="2978.2019" gradientTransform="matrix(1 0 0 -1 0 576)">
		<stop  offset="0" style="stop-color:#662D91"/>
		<stop  offset="1" style="stop-color:#EBAAFF"/>
	</linearGradient>
	<polygon class="st39" points="2432.1,-2337.2 2432.1,-1966.1 2493.7,-2040.1 2493.7,-2264.5 	"/>
	
		<linearGradient id="SVGID_41_" gradientUnits="userSpaceOnUse" x1="2536.0737" y1="2622.2297" x2="2529.1006" y2="2979.6033" gradientTransform="matrix(1 0 0 -1 0 576)">
		<stop  offset="0" style="stop-color:#662D91"/>
		<stop  offset="1" style="stop-color:#EBAAFF"/>
	</linearGradient>
	<polygon class="st40" points="2503.9,-2337.5 2503.9,-1966.4 2565.5,-2040.4 2565.5,-2264.9 	"/>
	
		<linearGradient id="SVGID_42_" gradientUnits="userSpaceOnUse" x1="2605.7771" y1="2623.5898" x2="2598.804" y2="2980.9634" gradientTransform="matrix(1 0 0 -1 0 576)">
		<stop  offset="0" style="stop-color:#662D91"/>
		<stop  offset="1" style="stop-color:#EBAAFF"/>
	</linearGradient>
	<polygon class="st41" points="2573.6,-2337.5 2573.6,-1966.4 2635.3,-2040.4 2635.3,-2264.9 	"/>
	
		<linearGradient id="SVGID_43_" gradientUnits="userSpaceOnUse" x1="2676.9597" y1="2624.9788" x2="2669.9866" y2="2982.3521" gradientTransform="matrix(1 0 0 -1 0 576)">
		<stop  offset="0" style="stop-color:#662D91"/>
		<stop  offset="1" style="stop-color:#EBAAFF"/>
	</linearGradient>
	<polygon class="st42" points="2644.9,-2333.6 2644.9,-1962.5 2706.5,-2036.5 2706.5,-2261 	"/>
	
		<linearGradient id="SVGID_44_" gradientUnits="userSpaceOnUse" x1="2751.3867" y1="2626.4309" x2="2744.4136" y2="2983.8044" gradientTransform="matrix(1 0 0 -1 0 576)">
		<stop  offset="0" style="stop-color:#662D91"/>
		<stop  offset="1" style="stop-color:#EBAAFF"/>
	</linearGradient>
	<polygon class="st43" points="2719.3,-2337.5 2719.3,-1966.4 2780.9,-2040.4 2780.9,-2264.9 	"/>
</g>
<rect x="222.5" y="-621.5" class="st44" width="1034.5" height="801"/>
<g>
	
		<linearGradient id="SVGID_45_" gradientUnits="userSpaceOnUse" x1="100.0103" y1="147.652" x2="91.0103" y2="608.902" gradientTransform="matrix(1 0 0 -1 0 576)">
		<stop  offset="0" style="stop-color:#662D91"/>
		<stop  offset="1" style="stop-color:#EBAAFF"/>
	</linearGradient>
	<polygon class="st45" points="58.5,51 58.5,530 138,434.5 138,144.8 	"/>
	
		<linearGradient id="SVGID_46_" gradientUnits="userSpaceOnUse" x1="193.6093" y1="151.1114" x2="184.6092" y2="612.3613" gradientTransform="matrix(1 0 0 -1 0 576)">
		<stop  offset="0" style="stop-color:#662D91"/>
		<stop  offset="1" style="stop-color:#EBAAFF"/>
	</linearGradient>
	<polygon class="st46" points="152.1,49.3 152.1,528.3 231.6,432.8 231.6,143 	"/>
	
		<linearGradient id="SVGID_47_" gradientUnits="userSpaceOnUse" x1="287.2082" y1="154.5708" x2="278.2082" y2="615.8207" gradientTransform="matrix(1 0 0 -1 0 576)">
		<stop  offset="0" style="stop-color:#662D91"/>
		<stop  offset="1" style="stop-color:#EBAAFF"/>
	</linearGradient>
	<polygon class="st47" points="245.8,47.5 245.8,526.5 325.3,431 325.3,141.3 	"/>
	
		<linearGradient id="SVGID_48_" gradientUnits="userSpaceOnUse" x1="380.8072" y1="158.0302" x2="371.8071" y2="619.2802" gradientTransform="matrix(1 0 0 -1 0 576)">
		<stop  offset="0" style="stop-color:#662D91"/>
		<stop  offset="1" style="stop-color:#EBAAFF"/>
	</linearGradient>
	<polygon class="st48" points="339.4,45.8 339.4,524.8 418.9,429.3 418.9,139.5 	"/>
	
		<linearGradient id="SVGID_49_" gradientUnits="userSpaceOnUse" x1="474.4061" y1="161.4895" x2="465.4061" y2="622.7396" gradientTransform="matrix(1 0 0 -1 0 576)">
		<stop  offset="0" style="stop-color:#662D91"/>
		<stop  offset="1" style="stop-color:#EBAAFF"/>
	</linearGradient>
	<polygon class="st49" points="433,44 433,523 512.5,427.5 512.5,137.8 	"/>
</g>
</svg>
